<mxfile host="app.diagrams.net" modified="2023-08-20T11:45:21.828Z" agent="Mozilla/5.0 (Macintosh; Intel Mac OS X 10_15_7) AppleWebKit/537.36 (KHTML, like Gecko) Chrome/115.0.0.0 Safari/537.36" etag="NeDNENRlLdYKNEi0vpNA" version="21.6.8" type="device" pages="3">
  <diagram id="8q5NHOFI6KheNU64T-AO" name="before">
    <mxGraphModel dx="1672" dy="1036" grid="1" gridSize="10" guides="1" tooltips="1" connect="1" arrows="1" fold="1" page="1" pageScale="1" pageWidth="1169" pageHeight="827" math="0" shadow="0">
      <root>
        <mxCell id="0" />
        <mxCell id="1" parent="0" />
        <mxCell id="inMSqp4WMMz_H2wgFitg-1" value="" style="rounded=0;whiteSpace=wrap;html=1;shadow=0;glass=0;sketch=0;strokeColor=#000000;fontSize=13;fillColor=none;" parent="1" vertex="1">
          <mxGeometry x="270" y="190" width="490" height="200" as="geometry" />
        </mxCell>
        <mxCell id="cIyXAqYbFHw67ln5j6Wf-5" value="" style="rounded=0;whiteSpace=wrap;html=1;fillColor=#ffe6cc;strokeColor=none;" parent="1" vertex="1">
          <mxGeometry x="795" y="230" width="190" height="130" as="geometry" />
        </mxCell>
        <mxCell id="cIyXAqYbFHw67ln5j6Wf-6" value="mapper package" style="text;html=1;strokeColor=none;fillColor=none;align=center;verticalAlign=middle;whiteSpace=wrap;rounded=0;fontSize=13;" parent="1" vertex="1">
          <mxGeometry x="910" y="232" width="70" height="30" as="geometry" />
        </mxCell>
        <mxCell id="cIyXAqYbFHw67ln5j6Wf-3" value="" style="rounded=0;whiteSpace=wrap;html=1;fillColor=none;" parent="1" vertex="1">
          <mxGeometry x="530" y="230" width="180" height="130" as="geometry" />
        </mxCell>
        <mxCell id="cIyXAqYbFHw67ln5j6Wf-4" value="service&lt;br&gt;package" style="text;html=1;strokeColor=none;fillColor=none;align=center;verticalAlign=middle;whiteSpace=wrap;rounded=0;fontSize=13;" parent="1" vertex="1">
          <mxGeometry x="640" y="232" width="70" height="30" as="geometry" />
        </mxCell>
        <mxCell id="cIyXAqYbFHw67ln5j6Wf-1" value="" style="rounded=0;whiteSpace=wrap;html=1;fillColor=none;" parent="1" vertex="1">
          <mxGeometry x="310" y="230" width="170" height="130" as="geometry" />
        </mxCell>
        <mxCell id="7XhtrLyckf3ccr-8E7ks-6" style="edgeStyle=orthogonalEdgeStyle;rounded=0;sketch=0;orthogonalLoop=1;jettySize=auto;html=1;exitX=0.5;exitY=0;exitDx=0;exitDy=0;entryX=0;entryY=0.5;entryDx=0;entryDy=0;strokeColor=default;strokeWidth=1;fontSize=13;endArrow=classic;endFill=1;" parent="1" source="7XhtrLyckf3ccr-8E7ks-1" target="7XhtrLyckf3ccr-8E7ks-5" edge="1">
          <mxGeometry relative="1" as="geometry" />
        </mxCell>
        <mxCell id="7XhtrLyckf3ccr-8E7ks-9" value="" style="edgeStyle=orthogonalEdgeStyle;rounded=0;sketch=0;orthogonalLoop=1;jettySize=auto;html=1;strokeColor=default;strokeWidth=1;fontSize=13;endArrow=classic;endFill=1;" parent="1" source="7XhtrLyckf3ccr-8E7ks-1" target="7XhtrLyckf3ccr-8E7ks-2" edge="1">
          <mxGeometry relative="1" as="geometry" />
        </mxCell>
        <mxCell id="7XhtrLyckf3ccr-8E7ks-1" value="Controller&lt;br&gt;(endpoint 1.. n)" style="rounded=1;whiteSpace=wrap;html=1;fontStyle=0;fontSize=13;glass=0;shadow=0;fillColor=none;" parent="1" vertex="1">
          <mxGeometry x="330" y="280" width="120" height="60" as="geometry" />
        </mxCell>
        <mxCell id="7XhtrLyckf3ccr-8E7ks-7" value="" style="edgeStyle=orthogonalEdgeStyle;rounded=0;sketch=0;orthogonalLoop=1;jettySize=auto;html=1;strokeColor=default;strokeWidth=1;fontSize=13;endArrow=classic;endFill=1;" parent="1" source="7XhtrLyckf3ccr-8E7ks-2" target="7XhtrLyckf3ccr-8E7ks-5" edge="1">
          <mxGeometry relative="1" as="geometry" />
        </mxCell>
        <mxCell id="7XhtrLyckf3ccr-8E7ks-10" value="" style="edgeStyle=orthogonalEdgeStyle;rounded=0;sketch=0;orthogonalLoop=1;jettySize=auto;html=1;strokeColor=default;strokeWidth=1;fontSize=13;endArrow=classic;endFill=1;" parent="1" source="7XhtrLyckf3ccr-8E7ks-2" target="7XhtrLyckf3ccr-8E7ks-3" edge="1">
          <mxGeometry relative="1" as="geometry" />
        </mxCell>
        <mxCell id="7XhtrLyckf3ccr-8E7ks-2" value="Service&lt;br&gt;(public method &lt;br&gt;1 .. n)" style="rounded=1;whiteSpace=wrap;html=1;fillColor=none;fontStyle=0;fontSize=13;glass=0;shadow=0;" parent="1" vertex="1">
          <mxGeometry x="560" y="280" width="120" height="60" as="geometry" />
        </mxCell>
        <mxCell id="ZoM9f_LSpojNdXUYswXC-4" style="edgeStyle=orthogonalEdgeStyle;rounded=0;sketch=0;orthogonalLoop=1;jettySize=auto;html=1;exitX=0.5;exitY=0;exitDx=0;exitDy=0;entryX=1;entryY=0.5;entryDx=0;entryDy=0;strokeColor=default;strokeWidth=1;fontSize=13;endArrow=classic;endFill=1;" parent="1" source="7XhtrLyckf3ccr-8E7ks-3" target="7XhtrLyckf3ccr-8E7ks-5" edge="1">
          <mxGeometry relative="1" as="geometry" />
        </mxCell>
        <mxCell id="DsTkchQL4C8cX3kKmV3h-1" style="edgeStyle=orthogonalEdgeStyle;rounded=0;sketch=0;orthogonalLoop=1;jettySize=auto;html=1;exitX=0.5;exitY=1;exitDx=0;exitDy=0;entryX=0.5;entryY=0;entryDx=0;entryDy=0;strokeColor=default;strokeWidth=2;fontSize=13;endArrow=classic;endFill=1;dashed=1;" parent="1" source="7XhtrLyckf3ccr-8E7ks-3" target="7XhtrLyckf3ccr-8E7ks-4" edge="1">
          <mxGeometry relative="1" as="geometry" />
        </mxCell>
        <mxCell id="7XhtrLyckf3ccr-8E7ks-3" value="Mapper&lt;br&gt;(for Mybatis)" style="rounded=1;whiteSpace=wrap;html=1;fontStyle=0;fontSize=13;glass=0;shadow=0;fillColor=none;" parent="1" vertex="1">
          <mxGeometry x="830" y="280" width="120" height="60" as="geometry" />
        </mxCell>
        <mxCell id="7XhtrLyckf3ccr-8E7ks-4" value="DB" style="rounded=1;whiteSpace=wrap;html=1;fontSize=13;glass=0;shadow=0;" parent="1" vertex="1">
          <mxGeometry x="830" y="424" width="120" height="60" as="geometry" />
        </mxCell>
        <mxCell id="7XhtrLyckf3ccr-8E7ks-5" value="java.util.Map&lt;br&gt;&amp;lt;String, Object&amp;gt;" style="rounded=1;whiteSpace=wrap;html=1;fillColor=none;fontStyle=0;fontSize=13;glass=0;shadow=0;" parent="1" vertex="1">
          <mxGeometry x="560" y="70" width="120" height="60" as="geometry" />
        </mxCell>
        <mxCell id="ZoM9f_LSpojNdXUYswXC-2" style="edgeStyle=orthogonalEdgeStyle;rounded=0;sketch=0;orthogonalLoop=1;jettySize=auto;html=1;exitX=0.5;exitY=0;exitDx=0;exitDy=0;entryX=0.5;entryY=1;entryDx=0;entryDy=0;strokeColor=default;strokeWidth=2;fontSize=13;endArrow=classic;endFill=1;dashed=1;" parent="1" source="ZoM9f_LSpojNdXUYswXC-1" target="7XhtrLyckf3ccr-8E7ks-1" edge="1">
          <mxGeometry relative="1" as="geometry" />
        </mxCell>
        <mxCell id="ZoM9f_LSpojNdXUYswXC-1" value="Client" style="rounded=1;whiteSpace=wrap;html=1;fontSize=13;glass=0;shadow=0;" parent="1" vertex="1">
          <mxGeometry x="330" y="424" width="120" height="60" as="geometry" />
        </mxCell>
        <mxCell id="cIyXAqYbFHw67ln5j6Wf-2" value="controller&lt;br&gt;package" style="text;html=1;strokeColor=none;fillColor=none;align=center;verticalAlign=middle;whiteSpace=wrap;rounded=0;fontSize=13;" parent="1" vertex="1">
          <mxGeometry x="410" y="232" width="70" height="30" as="geometry" />
        </mxCell>
        <mxCell id="inMSqp4WMMz_H2wgFitg-2" value="Area name package" style="text;html=1;strokeColor=none;fillColor=none;align=center;verticalAlign=middle;whiteSpace=wrap;rounded=0;fontSize=13;" parent="1" vertex="1">
          <mxGeometry x="620" y="190" width="140" height="30" as="geometry" />
        </mxCell>
      </root>
    </mxGraphModel>
  </diagram>
  <diagram name="after" id="51Q0P62RTQP7h5LHPJjQ">
    <mxGraphModel dx="1672" dy="1036" grid="1" gridSize="10" guides="1" tooltips="1" connect="1" arrows="1" fold="1" page="1" pageScale="1" pageWidth="1169" pageHeight="827" math="0" shadow="0">
      <root>
        <mxCell id="0" />
        <mxCell id="1" parent="0" />
        <mxCell id="pr-xAZzDVUDDKIMeCS3--1" value="" style="rounded=0;whiteSpace=wrap;html=1;shadow=0;glass=0;sketch=0;strokeColor=#000000;fontSize=13;fillColor=none;" parent="1" vertex="1">
          <mxGeometry x="150" y="100" width="670" height="380" as="geometry" />
        </mxCell>
        <mxCell id="2ZG5GDKa-TGTBDKhPgVc-4" value="" style="rounded=0;whiteSpace=wrap;html=1;shadow=0;glass=0;sketch=0;strokeColor=#000000;fontSize=13;fillColor=none;" parent="1" vertex="1">
          <mxGeometry x="170" y="140" width="630" height="320" as="geometry" />
        </mxCell>
        <mxCell id="OjpnIvSW4qeJEdepw9lT-31" value="" style="rounded=0;whiteSpace=wrap;html=1;fillColor=#fff2cc;strokeColor=none;" parent="1" vertex="1">
          <mxGeometry x="580" y="500" width="210" height="130" as="geometry" />
        </mxCell>
        <mxCell id="OjpnIvSW4qeJEdepw9lT-23" value="" style="rounded=0;whiteSpace=wrap;html=1;fillColor=#ffe6cc;strokeColor=none;" parent="1" vertex="1">
          <mxGeometry x="860" y="170" width="210" height="280" as="geometry" />
        </mxCell>
        <mxCell id="OjpnIvSW4qeJEdepw9lT-26" value="" style="rounded=1;whiteSpace=wrap;html=1;fillColor=none;fontStyle=0;fontSize=13;" parent="1" vertex="1">
          <mxGeometry x="630" y="554" width="120" height="60" as="geometry" />
        </mxCell>
        <mxCell id="OjpnIvSW4qeJEdepw9lT-25" value="" style="rounded=1;whiteSpace=wrap;html=1;fillColor=none;fontStyle=1;fontSize=13;" parent="1" vertex="1">
          <mxGeometry x="910" y="220" width="120" height="60" as="geometry" />
        </mxCell>
        <mxCell id="OjpnIvSW4qeJEdepw9lT-24" value="" style="rounded=1;whiteSpace=wrap;html=1;fillColor=none;fontStyle=0;fontSize=13;" parent="1" vertex="1">
          <mxGeometry x="910" y="370" width="120" height="60" as="geometry" />
        </mxCell>
        <mxCell id="OjpnIvSW4qeJEdepw9lT-8" style="edgeStyle=orthogonalEdgeStyle;rounded=0;orthogonalLoop=1;jettySize=auto;html=1;exitX=0.5;exitY=0;exitDx=0;exitDy=0;entryX=0.5;entryY=1;entryDx=0;entryDy=0;" parent="1" source="OjpnIvSW4qeJEdepw9lT-1" target="OjpnIvSW4qeJEdepw9lT-2" edge="1">
          <mxGeometry relative="1" as="geometry" />
        </mxCell>
        <mxCell id="OjpnIvSW4qeJEdepw9lT-10" style="edgeStyle=orthogonalEdgeStyle;rounded=0;orthogonalLoop=1;jettySize=auto;html=1;exitX=1;exitY=0.25;exitDx=0;exitDy=0;entryX=0;entryY=0.75;entryDx=0;entryDy=0;" parent="1" source="OjpnIvSW4qeJEdepw9lT-1" target="OjpnIvSW4qeJEdepw9lT-5" edge="1">
          <mxGeometry relative="1" as="geometry">
            <Array as="points">
              <mxPoint x="570" y="375" />
              <mxPoint x="570" y="255" />
            </Array>
          </mxGeometry>
        </mxCell>
        <mxCell id="OjpnIvSW4qeJEdepw9lT-11" style="edgeStyle=orthogonalEdgeStyle;rounded=0;orthogonalLoop=1;jettySize=auto;html=1;exitX=1;exitY=0.5;exitDx=0;exitDy=0;entryX=0;entryY=0.5;entryDx=0;entryDy=0;" parent="1" source="OjpnIvSW4qeJEdepw9lT-1" target="OjpnIvSW4qeJEdepw9lT-4" edge="1">
          <mxGeometry relative="1" as="geometry" />
        </mxCell>
        <mxCell id="OjpnIvSW4qeJEdepw9lT-17" style="edgeStyle=orthogonalEdgeStyle;rounded=0;orthogonalLoop=1;jettySize=auto;html=1;exitX=0;exitY=0.5;exitDx=0;exitDy=0;entryX=0.5;entryY=1;entryDx=0;entryDy=0;" parent="1" source="OjpnIvSW4qeJEdepw9lT-1" target="OjpnIvSW4qeJEdepw9lT-3" edge="1">
          <mxGeometry relative="1" as="geometry" />
        </mxCell>
        <mxCell id="OjpnIvSW4qeJEdepw9lT-1" value="Controller&lt;br&gt;(endpoint 1)" style="rounded=1;whiteSpace=wrap;html=1;fillColor=none;fontStyle=0;fontSize=13;glass=0;shadow=0;" parent="1" vertex="1">
          <mxGeometry x="400" y="360" width="120" height="60" as="geometry" />
        </mxCell>
        <mxCell id="OjpnIvSW4qeJEdepw9lT-2" value="Request&lt;br&gt;(Nested class&lt;br style=&quot;border-color: var(--border-color);&quot;&gt;in Controller)" style="rounded=1;whiteSpace=wrap;html=1;fillColor=none;fontStyle=0;fontSize=13;glass=0;shadow=0;fontColor=#660000;" parent="1" vertex="1">
          <mxGeometry x="400" y="210" width="120" height="60" as="geometry" />
        </mxCell>
        <mxCell id="OjpnIvSW4qeJEdepw9lT-3" value="Response&lt;br&gt;(Nested class&lt;br&gt;in Controller)" style="rounded=1;whiteSpace=wrap;html=1;fillColor=none;fontStyle=0;fontSize=13;glass=0;shadow=0;fontColor=#660000;" parent="1" vertex="1">
          <mxGeometry x="210" y="210" width="120" height="60" as="geometry" />
        </mxCell>
        <mxCell id="OjpnIvSW4qeJEdepw9lT-12" style="edgeStyle=orthogonalEdgeStyle;rounded=0;orthogonalLoop=1;jettySize=auto;html=1;exitX=0.5;exitY=0;exitDx=0;exitDy=0;entryX=0.5;entryY=1;entryDx=0;entryDy=0;" parent="1" source="OjpnIvSW4qeJEdepw9lT-4" target="OjpnIvSW4qeJEdepw9lT-5" edge="1">
          <mxGeometry relative="1" as="geometry" />
        </mxCell>
        <mxCell id="OjpnIvSW4qeJEdepw9lT-14" style="edgeStyle=orthogonalEdgeStyle;rounded=0;orthogonalLoop=1;jettySize=auto;html=1;exitX=1;exitY=0.5;exitDx=0;exitDy=0;entryX=0;entryY=0.5;entryDx=0;entryDy=0;" parent="1" source="OjpnIvSW4qeJEdepw9lT-4" target="OjpnIvSW4qeJEdepw9lT-7" edge="1">
          <mxGeometry relative="1" as="geometry" />
        </mxCell>
        <mxCell id="OjpnIvSW4qeJEdepw9lT-15" style="edgeStyle=orthogonalEdgeStyle;rounded=0;orthogonalLoop=1;jettySize=auto;html=1;exitX=1;exitY=0.25;exitDx=0;exitDy=0;entryX=0;entryY=0.75;entryDx=0;entryDy=0;" parent="1" source="OjpnIvSW4qeJEdepw9lT-4" target="OjpnIvSW4qeJEdepw9lT-6" edge="1">
          <mxGeometry relative="1" as="geometry">
            <Array as="points">
              <mxPoint x="840" y="375" />
              <mxPoint x="840" y="255" />
            </Array>
          </mxGeometry>
        </mxCell>
        <mxCell id="OjpnIvSW4qeJEdepw9lT-20" style="edgeStyle=orthogonalEdgeStyle;rounded=0;orthogonalLoop=1;jettySize=auto;html=1;exitX=0.5;exitY=1;exitDx=0;exitDy=0;entryX=0.5;entryY=0;entryDx=0;entryDy=0;" parent="1" source="OjpnIvSW4qeJEdepw9lT-4" target="OjpnIvSW4qeJEdepw9lT-19" edge="1">
          <mxGeometry relative="1" as="geometry" />
        </mxCell>
        <mxCell id="OjpnIvSW4qeJEdepw9lT-4" value="Service&lt;br&gt;(public method 1)" style="rounded=1;whiteSpace=wrap;html=1;fillColor=none;fontStyle=0;fontSize=13;glass=0;shadow=0;" parent="1" vertex="1">
          <mxGeometry x="620" y="360" width="120" height="60" as="geometry" />
        </mxCell>
        <mxCell id="OjpnIvSW4qeJEdepw9lT-9" style="edgeStyle=orthogonalEdgeStyle;rounded=0;orthogonalLoop=1;jettySize=auto;html=1;exitX=0;exitY=0.5;exitDx=0;exitDy=0;entryX=1;entryY=0.5;entryDx=0;entryDy=0;" parent="1" source="OjpnIvSW4qeJEdepw9lT-5" target="OjpnIvSW4qeJEdepw9lT-2" edge="1">
          <mxGeometry relative="1" as="geometry" />
        </mxCell>
        <mxCell id="OjpnIvSW4qeJEdepw9lT-13" style="edgeStyle=orthogonalEdgeStyle;rounded=0;orthogonalLoop=1;jettySize=auto;html=1;exitX=1;exitY=0.5;exitDx=0;exitDy=0;entryX=0;entryY=0.5;entryDx=0;entryDy=0;" parent="1" source="OjpnIvSW4qeJEdepw9lT-5" target="OjpnIvSW4qeJEdepw9lT-6" edge="1">
          <mxGeometry relative="1" as="geometry" />
        </mxCell>
        <mxCell id="OjpnIvSW4qeJEdepw9lT-18" style="edgeStyle=orthogonalEdgeStyle;rounded=0;orthogonalLoop=1;jettySize=auto;html=1;exitX=0.5;exitY=0;exitDx=0;exitDy=0;entryX=0.5;entryY=0;entryDx=0;entryDy=0;" parent="1" source="OjpnIvSW4qeJEdepw9lT-5" target="OjpnIvSW4qeJEdepw9lT-3" edge="1">
          <mxGeometry relative="1" as="geometry" />
        </mxCell>
        <mxCell id="OjpnIvSW4qeJEdepw9lT-5" value="DataManager" style="rounded=1;whiteSpace=wrap;html=1;fillColor=none;fontStyle=0;fontSize=13;glass=0;shadow=0;" parent="1" vertex="1">
          <mxGeometry x="620" y="210" width="120" height="60" as="geometry" />
        </mxCell>
        <mxCell id="OjpnIvSW4qeJEdepw9lT-6" value="VO" style="rounded=1;whiteSpace=wrap;html=1;fillColor=#ffe6cc;fontStyle=0;fontSize=13;strokeColor=#000000;glass=0;shadow=0;fontColor=#000000;" parent="1" vertex="1">
          <mxGeometry x="900" y="210" width="120" height="60" as="geometry" />
        </mxCell>
        <mxCell id="OjpnIvSW4qeJEdepw9lT-16" style="edgeStyle=orthogonalEdgeStyle;rounded=0;orthogonalLoop=1;jettySize=auto;html=1;exitX=0.5;exitY=0;exitDx=0;exitDy=0;entryX=0.5;entryY=1;entryDx=0;entryDy=0;" parent="1" source="OjpnIvSW4qeJEdepw9lT-7" target="OjpnIvSW4qeJEdepw9lT-6" edge="1">
          <mxGeometry relative="1" as="geometry">
            <mxPoint x="960" y="280" as="targetPoint" />
          </mxGeometry>
        </mxCell>
        <mxCell id="OjpnIvSW4qeJEdepw9lT-30" style="edgeStyle=orthogonalEdgeStyle;rounded=0;orthogonalLoop=1;jettySize=auto;html=1;exitX=0.5;exitY=1;exitDx=0;exitDy=0;entryX=0.5;entryY=0;entryDx=0;entryDy=0;fontSize=13;strokeWidth=2;endArrow=classic;endFill=1;dashed=1;" parent="1" source="OjpnIvSW4qeJEdepw9lT-7" target="OjpnIvSW4qeJEdepw9lT-28" edge="1">
          <mxGeometry relative="1" as="geometry" />
        </mxCell>
        <mxCell id="OjpnIvSW4qeJEdepw9lT-7" value="Mapper&lt;br&gt;(for Mybatis)" style="rounded=1;whiteSpace=wrap;html=1;fillColor=#ffe6cc;fontStyle=0;fontSize=13;strokeColor=#000000;glass=0;shadow=0;" parent="1" vertex="1">
          <mxGeometry x="900" y="360" width="120" height="60" as="geometry" />
        </mxCell>
        <mxCell id="OjpnIvSW4qeJEdepw9lT-19" value="CommonService&lt;br&gt;(ex. API, CommonLogic)" style="rounded=1;whiteSpace=wrap;html=1;fillColor=#fff2cc;fontStyle=0;fontSize=13;strokeColor=#000000;glass=0;shadow=0;" parent="1" vertex="1">
          <mxGeometry x="620" y="544" width="120" height="60" as="geometry" />
        </mxCell>
        <mxCell id="OjpnIvSW4qeJEdepw9lT-29" style="edgeStyle=orthogonalEdgeStyle;rounded=0;orthogonalLoop=1;jettySize=auto;html=1;exitX=0.5;exitY=0;exitDx=0;exitDy=0;entryX=0.5;entryY=1;entryDx=0;entryDy=0;fontSize=13;endArrow=classic;endFill=1;strokeColor=default;strokeWidth=2;dashed=1;" parent="1" source="OjpnIvSW4qeJEdepw9lT-27" target="OjpnIvSW4qeJEdepw9lT-1" edge="1">
          <mxGeometry relative="1" as="geometry" />
        </mxCell>
        <mxCell id="OjpnIvSW4qeJEdepw9lT-27" value="Client" style="rounded=1;whiteSpace=wrap;html=1;fontSize=13;glass=0;shadow=0;" parent="1" vertex="1">
          <mxGeometry x="400" y="504" width="120" height="60" as="geometry" />
        </mxCell>
        <mxCell id="OjpnIvSW4qeJEdepw9lT-28" value="DB" style="rounded=1;whiteSpace=wrap;html=1;fontSize=13;glass=0;shadow=0;" parent="1" vertex="1">
          <mxGeometry x="900" y="504" width="120" height="60" as="geometry" />
        </mxCell>
        <mxCell id="2ZG5GDKa-TGTBDKhPgVc-3" value="entity package" style="text;html=1;strokeColor=none;fillColor=none;align=center;verticalAlign=middle;whiteSpace=wrap;rounded=0;fontSize=13;" parent="1" vertex="1">
          <mxGeometry x="980" y="170" width="90" height="30" as="geometry" />
        </mxCell>
        <mxCell id="2ZG5GDKa-TGTBDKhPgVc-5" value="Endpoint ID name package" style="text;html=1;strokeColor=none;fillColor=none;align=center;verticalAlign=middle;whiteSpace=wrap;rounded=0;fontSize=13;" parent="1" vertex="1">
          <mxGeometry x="630" y="140" width="170" height="30" as="geometry" />
        </mxCell>
        <mxCell id="2ZG5GDKa-TGTBDKhPgVc-6" value="common service&lt;br&gt;package" style="text;html=1;strokeColor=none;fillColor=none;align=center;verticalAlign=middle;whiteSpace=wrap;rounded=0;fontSize=13;" parent="1" vertex="1">
          <mxGeometry x="690" y="504" width="100" height="30" as="geometry" />
        </mxCell>
        <mxCell id="pr-xAZzDVUDDKIMeCS3--2" value="Area name package" style="text;html=1;strokeColor=none;fillColor=none;align=center;verticalAlign=middle;whiteSpace=wrap;rounded=0;fontSize=13;" parent="1" vertex="1">
          <mxGeometry x="680" y="100" width="140" height="30" as="geometry" />
        </mxCell>
      </root>
    </mxGraphModel>
  </diagram>
  <diagram id="Wg--TEfPhPwkFFMMQ3PI" name="cover">
    <mxGraphModel dx="3527" dy="1305" grid="1" gridSize="10" guides="1" tooltips="1" connect="1" arrows="1" fold="1" page="1" pageScale="1" pageWidth="1169" pageHeight="827" math="0" shadow="0">
      <root>
        <mxCell id="0" />
        <mxCell id="1" parent="0" />
        <mxCell id="MEJBcDf_CxJD8yL1ZOv6-37" value="" style="rounded=1;whiteSpace=wrap;html=1;fillColor=none;sketch=1;curveFitting=1;jiggle=2;" vertex="1" parent="1">
          <mxGeometry x="-350" y="100" width="1950" height="630" as="geometry" />
        </mxCell>
        <mxCell id="MPVpJnP6VY_F1n8LJAvs-22" value="" style="group" vertex="1" connectable="0" parent="1">
          <mxGeometry x="-310" y="207" width="715" height="414" as="geometry" />
        </mxCell>
        <mxCell id="MPVpJnP6VY_F1n8LJAvs-1" value="" style="rounded=0;whiteSpace=wrap;html=1;shadow=0;glass=0;sketch=0;strokeColor=#000000;fontSize=13;fillColor=none;" vertex="1" parent="MPVpJnP6VY_F1n8LJAvs-22">
          <mxGeometry y="120" width="490" height="200" as="geometry" />
        </mxCell>
        <mxCell id="MPVpJnP6VY_F1n8LJAvs-2" value="" style="rounded=0;whiteSpace=wrap;html=1;fillColor=#ffe6cc;strokeColor=none;" vertex="1" parent="MPVpJnP6VY_F1n8LJAvs-22">
          <mxGeometry x="525" y="160" width="190" height="130" as="geometry" />
        </mxCell>
        <mxCell id="MPVpJnP6VY_F1n8LJAvs-3" value="mapper package" style="text;html=1;strokeColor=none;fillColor=none;align=center;verticalAlign=middle;whiteSpace=wrap;rounded=0;fontSize=13;" vertex="1" parent="MPVpJnP6VY_F1n8LJAvs-22">
          <mxGeometry x="640" y="162" width="70" height="30" as="geometry" />
        </mxCell>
        <mxCell id="MPVpJnP6VY_F1n8LJAvs-4" value="" style="rounded=0;whiteSpace=wrap;html=1;fillColor=none;" vertex="1" parent="MPVpJnP6VY_F1n8LJAvs-22">
          <mxGeometry x="260" y="160" width="180" height="130" as="geometry" />
        </mxCell>
        <mxCell id="MPVpJnP6VY_F1n8LJAvs-5" value="service&lt;br&gt;package" style="text;html=1;strokeColor=none;fillColor=none;align=center;verticalAlign=middle;whiteSpace=wrap;rounded=0;fontSize=13;" vertex="1" parent="MPVpJnP6VY_F1n8LJAvs-22">
          <mxGeometry x="370" y="162" width="70" height="30" as="geometry" />
        </mxCell>
        <mxCell id="MPVpJnP6VY_F1n8LJAvs-6" value="" style="rounded=0;whiteSpace=wrap;html=1;fillColor=none;" vertex="1" parent="MPVpJnP6VY_F1n8LJAvs-22">
          <mxGeometry x="40" y="160" width="170" height="130" as="geometry" />
        </mxCell>
        <mxCell id="MPVpJnP6VY_F1n8LJAvs-9" value="Controller&lt;br&gt;(endpoint 1.. n)" style="rounded=1;whiteSpace=wrap;html=1;fontStyle=0;fontSize=13;glass=0;shadow=0;fillColor=none;" vertex="1" parent="MPVpJnP6VY_F1n8LJAvs-22">
          <mxGeometry x="60" y="210" width="120" height="60" as="geometry" />
        </mxCell>
        <mxCell id="MPVpJnP6VY_F1n8LJAvs-12" value="Service&lt;br&gt;(public method &lt;br&gt;1 .. n)" style="rounded=1;whiteSpace=wrap;html=1;fillColor=none;fontStyle=0;fontSize=13;glass=0;shadow=0;" vertex="1" parent="MPVpJnP6VY_F1n8LJAvs-22">
          <mxGeometry x="290" y="210" width="120" height="60" as="geometry" />
        </mxCell>
        <mxCell id="MPVpJnP6VY_F1n8LJAvs-8" value="" style="edgeStyle=orthogonalEdgeStyle;rounded=0;sketch=0;orthogonalLoop=1;jettySize=auto;html=1;strokeColor=default;strokeWidth=1;fontSize=13;endArrow=classic;endFill=1;" edge="1" parent="MPVpJnP6VY_F1n8LJAvs-22" source="MPVpJnP6VY_F1n8LJAvs-9" target="MPVpJnP6VY_F1n8LJAvs-12">
          <mxGeometry relative="1" as="geometry" />
        </mxCell>
        <mxCell id="MPVpJnP6VY_F1n8LJAvs-15" value="Mapper&lt;br&gt;(for Mybatis)" style="rounded=1;whiteSpace=wrap;html=1;fontStyle=0;fontSize=13;glass=0;shadow=0;fillColor=none;" vertex="1" parent="MPVpJnP6VY_F1n8LJAvs-22">
          <mxGeometry x="560" y="210" width="120" height="60" as="geometry" />
        </mxCell>
        <mxCell id="MPVpJnP6VY_F1n8LJAvs-11" value="" style="edgeStyle=orthogonalEdgeStyle;rounded=0;sketch=0;orthogonalLoop=1;jettySize=auto;html=1;strokeColor=default;strokeWidth=1;fontSize=13;endArrow=classic;endFill=1;" edge="1" parent="MPVpJnP6VY_F1n8LJAvs-22" source="MPVpJnP6VY_F1n8LJAvs-12" target="MPVpJnP6VY_F1n8LJAvs-15">
          <mxGeometry relative="1" as="geometry" />
        </mxCell>
        <mxCell id="MPVpJnP6VY_F1n8LJAvs-16" value="DB" style="rounded=1;whiteSpace=wrap;html=1;fontSize=13;glass=0;shadow=0;" vertex="1" parent="MPVpJnP6VY_F1n8LJAvs-22">
          <mxGeometry x="560" y="354" width="120" height="60" as="geometry" />
        </mxCell>
        <mxCell id="MPVpJnP6VY_F1n8LJAvs-14" style="edgeStyle=orthogonalEdgeStyle;rounded=0;sketch=0;orthogonalLoop=1;jettySize=auto;html=1;exitX=0.5;exitY=1;exitDx=0;exitDy=0;entryX=0.5;entryY=0;entryDx=0;entryDy=0;strokeColor=default;strokeWidth=2;fontSize=13;endArrow=classic;endFill=1;dashed=1;" edge="1" parent="MPVpJnP6VY_F1n8LJAvs-22" source="MPVpJnP6VY_F1n8LJAvs-15" target="MPVpJnP6VY_F1n8LJAvs-16">
          <mxGeometry relative="1" as="geometry" />
        </mxCell>
        <mxCell id="MPVpJnP6VY_F1n8LJAvs-17" value="java.util.Map&lt;br&gt;&amp;lt;String, Object&amp;gt;" style="rounded=1;whiteSpace=wrap;html=1;fillColor=none;fontStyle=0;fontSize=13;glass=0;shadow=0;" vertex="1" parent="MPVpJnP6VY_F1n8LJAvs-22">
          <mxGeometry x="290" width="120" height="60" as="geometry" />
        </mxCell>
        <mxCell id="MPVpJnP6VY_F1n8LJAvs-7" style="edgeStyle=orthogonalEdgeStyle;rounded=0;sketch=0;orthogonalLoop=1;jettySize=auto;html=1;exitX=0.5;exitY=0;exitDx=0;exitDy=0;entryX=0;entryY=0.5;entryDx=0;entryDy=0;strokeColor=default;strokeWidth=1;fontSize=13;endArrow=classic;endFill=1;" edge="1" parent="MPVpJnP6VY_F1n8LJAvs-22" source="MPVpJnP6VY_F1n8LJAvs-9" target="MPVpJnP6VY_F1n8LJAvs-17">
          <mxGeometry relative="1" as="geometry" />
        </mxCell>
        <mxCell id="MPVpJnP6VY_F1n8LJAvs-10" value="" style="edgeStyle=orthogonalEdgeStyle;rounded=0;sketch=0;orthogonalLoop=1;jettySize=auto;html=1;strokeColor=default;strokeWidth=1;fontSize=13;endArrow=classic;endFill=1;" edge="1" parent="MPVpJnP6VY_F1n8LJAvs-22" source="MPVpJnP6VY_F1n8LJAvs-12" target="MPVpJnP6VY_F1n8LJAvs-17">
          <mxGeometry relative="1" as="geometry" />
        </mxCell>
        <mxCell id="MPVpJnP6VY_F1n8LJAvs-13" style="edgeStyle=orthogonalEdgeStyle;rounded=0;sketch=0;orthogonalLoop=1;jettySize=auto;html=1;exitX=0.5;exitY=0;exitDx=0;exitDy=0;entryX=1;entryY=0.5;entryDx=0;entryDy=0;strokeColor=default;strokeWidth=1;fontSize=13;endArrow=classic;endFill=1;" edge="1" parent="MPVpJnP6VY_F1n8LJAvs-22" source="MPVpJnP6VY_F1n8LJAvs-15" target="MPVpJnP6VY_F1n8LJAvs-17">
          <mxGeometry relative="1" as="geometry" />
        </mxCell>
        <mxCell id="MPVpJnP6VY_F1n8LJAvs-18" style="edgeStyle=orthogonalEdgeStyle;rounded=0;sketch=0;orthogonalLoop=1;jettySize=auto;html=1;exitX=0.5;exitY=0;exitDx=0;exitDy=0;entryX=0.5;entryY=1;entryDx=0;entryDy=0;strokeColor=default;strokeWidth=2;fontSize=13;endArrow=classic;endFill=1;dashed=1;" edge="1" parent="MPVpJnP6VY_F1n8LJAvs-22" source="MPVpJnP6VY_F1n8LJAvs-19" target="MPVpJnP6VY_F1n8LJAvs-9">
          <mxGeometry relative="1" as="geometry" />
        </mxCell>
        <mxCell id="MPVpJnP6VY_F1n8LJAvs-19" value="Client" style="rounded=1;whiteSpace=wrap;html=1;fontSize=13;glass=0;shadow=0;" vertex="1" parent="MPVpJnP6VY_F1n8LJAvs-22">
          <mxGeometry x="60" y="354" width="120" height="60" as="geometry" />
        </mxCell>
        <mxCell id="MPVpJnP6VY_F1n8LJAvs-20" value="controller&lt;br&gt;package" style="text;html=1;strokeColor=none;fillColor=none;align=center;verticalAlign=middle;whiteSpace=wrap;rounded=0;fontSize=13;" vertex="1" parent="MPVpJnP6VY_F1n8LJAvs-22">
          <mxGeometry x="140" y="162" width="70" height="30" as="geometry" />
        </mxCell>
        <mxCell id="MPVpJnP6VY_F1n8LJAvs-21" value="Area name package" style="text;html=1;strokeColor=none;fillColor=none;align=center;verticalAlign=middle;whiteSpace=wrap;rounded=0;fontSize=13;" vertex="1" parent="MPVpJnP6VY_F1n8LJAvs-22">
          <mxGeometry x="350" y="120" width="140" height="30" as="geometry" />
        </mxCell>
        <mxCell id="MEJBcDf_CxJD8yL1ZOv6-36" value="" style="group" vertex="1" connectable="0" parent="1">
          <mxGeometry x="640" y="149" width="920" height="530" as="geometry" />
        </mxCell>
        <mxCell id="MEJBcDf_CxJD8yL1ZOv6-1" value="" style="rounded=0;whiteSpace=wrap;html=1;shadow=0;glass=0;sketch=0;strokeColor=#000000;fontSize=13;fillColor=none;" vertex="1" parent="MEJBcDf_CxJD8yL1ZOv6-36">
          <mxGeometry width="670" height="380" as="geometry" />
        </mxCell>
        <mxCell id="MEJBcDf_CxJD8yL1ZOv6-2" value="" style="rounded=0;whiteSpace=wrap;html=1;shadow=0;glass=0;sketch=0;strokeColor=#000000;fontSize=13;fillColor=none;" vertex="1" parent="MEJBcDf_CxJD8yL1ZOv6-36">
          <mxGeometry x="20" y="40" width="630" height="320" as="geometry" />
        </mxCell>
        <mxCell id="MEJBcDf_CxJD8yL1ZOv6-3" value="" style="rounded=0;whiteSpace=wrap;html=1;fillColor=#fff2cc;strokeColor=none;" vertex="1" parent="MEJBcDf_CxJD8yL1ZOv6-36">
          <mxGeometry x="430" y="400" width="210" height="130" as="geometry" />
        </mxCell>
        <mxCell id="MEJBcDf_CxJD8yL1ZOv6-4" value="" style="rounded=0;whiteSpace=wrap;html=1;fillColor=#ffe6cc;strokeColor=none;" vertex="1" parent="MEJBcDf_CxJD8yL1ZOv6-36">
          <mxGeometry x="710" y="70" width="210" height="280" as="geometry" />
        </mxCell>
        <mxCell id="MEJBcDf_CxJD8yL1ZOv6-5" value="" style="rounded=1;whiteSpace=wrap;html=1;fillColor=none;fontStyle=0;fontSize=13;" vertex="1" parent="MEJBcDf_CxJD8yL1ZOv6-36">
          <mxGeometry x="480" y="454" width="120" height="60" as="geometry" />
        </mxCell>
        <mxCell id="MEJBcDf_CxJD8yL1ZOv6-6" value="" style="rounded=1;whiteSpace=wrap;html=1;fillColor=none;fontStyle=1;fontSize=13;" vertex="1" parent="MEJBcDf_CxJD8yL1ZOv6-36">
          <mxGeometry x="760" y="120" width="120" height="60" as="geometry" />
        </mxCell>
        <mxCell id="MEJBcDf_CxJD8yL1ZOv6-7" value="" style="rounded=1;whiteSpace=wrap;html=1;fillColor=none;fontStyle=0;fontSize=13;" vertex="1" parent="MEJBcDf_CxJD8yL1ZOv6-36">
          <mxGeometry x="760" y="270" width="120" height="60" as="geometry" />
        </mxCell>
        <mxCell id="MEJBcDf_CxJD8yL1ZOv6-12" value="Controller&lt;br&gt;(endpoint 1)" style="rounded=1;whiteSpace=wrap;html=1;fillColor=none;fontStyle=0;fontSize=13;glass=0;shadow=0;" vertex="1" parent="MEJBcDf_CxJD8yL1ZOv6-36">
          <mxGeometry x="250" y="260" width="120" height="60" as="geometry" />
        </mxCell>
        <mxCell id="MEJBcDf_CxJD8yL1ZOv6-13" value="Request&lt;br&gt;(Nested class&lt;br style=&quot;border-color: var(--border-color);&quot;&gt;in Controller)" style="rounded=1;whiteSpace=wrap;html=1;fillColor=none;fontStyle=0;fontSize=13;glass=0;shadow=0;fontColor=#660000;" vertex="1" parent="MEJBcDf_CxJD8yL1ZOv6-36">
          <mxGeometry x="250" y="110" width="120" height="60" as="geometry" />
        </mxCell>
        <mxCell id="MEJBcDf_CxJD8yL1ZOv6-8" style="edgeStyle=orthogonalEdgeStyle;rounded=0;orthogonalLoop=1;jettySize=auto;html=1;exitX=0.5;exitY=0;exitDx=0;exitDy=0;entryX=0.5;entryY=1;entryDx=0;entryDy=0;" edge="1" parent="MEJBcDf_CxJD8yL1ZOv6-36" source="MEJBcDf_CxJD8yL1ZOv6-12" target="MEJBcDf_CxJD8yL1ZOv6-13">
          <mxGeometry relative="1" as="geometry" />
        </mxCell>
        <mxCell id="MEJBcDf_CxJD8yL1ZOv6-14" value="Response&lt;br&gt;(Nested class&lt;br&gt;in Controller)" style="rounded=1;whiteSpace=wrap;html=1;fillColor=none;fontStyle=0;fontSize=13;glass=0;shadow=0;fontColor=#660000;" vertex="1" parent="MEJBcDf_CxJD8yL1ZOv6-36">
          <mxGeometry x="60" y="110" width="120" height="60" as="geometry" />
        </mxCell>
        <mxCell id="MEJBcDf_CxJD8yL1ZOv6-11" style="edgeStyle=orthogonalEdgeStyle;rounded=0;orthogonalLoop=1;jettySize=auto;html=1;exitX=0;exitY=0.5;exitDx=0;exitDy=0;entryX=0.5;entryY=1;entryDx=0;entryDy=0;" edge="1" parent="MEJBcDf_CxJD8yL1ZOv6-36" source="MEJBcDf_CxJD8yL1ZOv6-12" target="MEJBcDf_CxJD8yL1ZOv6-14">
          <mxGeometry relative="1" as="geometry" />
        </mxCell>
        <mxCell id="MEJBcDf_CxJD8yL1ZOv6-19" value="Service&lt;br&gt;(public method 1)" style="rounded=1;whiteSpace=wrap;html=1;fillColor=none;fontStyle=0;fontSize=13;glass=0;shadow=0;" vertex="1" parent="MEJBcDf_CxJD8yL1ZOv6-36">
          <mxGeometry x="470" y="260" width="120" height="60" as="geometry" />
        </mxCell>
        <mxCell id="MEJBcDf_CxJD8yL1ZOv6-10" style="edgeStyle=orthogonalEdgeStyle;rounded=0;orthogonalLoop=1;jettySize=auto;html=1;exitX=1;exitY=0.5;exitDx=0;exitDy=0;entryX=0;entryY=0.5;entryDx=0;entryDy=0;" edge="1" parent="MEJBcDf_CxJD8yL1ZOv6-36" source="MEJBcDf_CxJD8yL1ZOv6-12" target="MEJBcDf_CxJD8yL1ZOv6-19">
          <mxGeometry relative="1" as="geometry" />
        </mxCell>
        <mxCell id="MEJBcDf_CxJD8yL1ZOv6-20" style="edgeStyle=orthogonalEdgeStyle;rounded=0;orthogonalLoop=1;jettySize=auto;html=1;exitX=0;exitY=0.5;exitDx=0;exitDy=0;entryX=1;entryY=0.5;entryDx=0;entryDy=0;" edge="1" parent="MEJBcDf_CxJD8yL1ZOv6-36" source="MEJBcDf_CxJD8yL1ZOv6-23" target="MEJBcDf_CxJD8yL1ZOv6-13">
          <mxGeometry relative="1" as="geometry" />
        </mxCell>
        <mxCell id="MEJBcDf_CxJD8yL1ZOv6-22" style="edgeStyle=orthogonalEdgeStyle;rounded=0;orthogonalLoop=1;jettySize=auto;html=1;exitX=0.5;exitY=0;exitDx=0;exitDy=0;entryX=0.5;entryY=0;entryDx=0;entryDy=0;" edge="1" parent="MEJBcDf_CxJD8yL1ZOv6-36" source="MEJBcDf_CxJD8yL1ZOv6-23" target="MEJBcDf_CxJD8yL1ZOv6-14">
          <mxGeometry relative="1" as="geometry" />
        </mxCell>
        <mxCell id="MEJBcDf_CxJD8yL1ZOv6-23" value="DataManager" style="rounded=1;whiteSpace=wrap;html=1;fillColor=none;fontStyle=0;fontSize=13;glass=0;shadow=0;" vertex="1" parent="MEJBcDf_CxJD8yL1ZOv6-36">
          <mxGeometry x="470" y="110" width="120" height="60" as="geometry" />
        </mxCell>
        <mxCell id="MEJBcDf_CxJD8yL1ZOv6-9" style="edgeStyle=orthogonalEdgeStyle;rounded=0;orthogonalLoop=1;jettySize=auto;html=1;exitX=1;exitY=0.25;exitDx=0;exitDy=0;entryX=0;entryY=0.75;entryDx=0;entryDy=0;" edge="1" parent="MEJBcDf_CxJD8yL1ZOv6-36" source="MEJBcDf_CxJD8yL1ZOv6-12" target="MEJBcDf_CxJD8yL1ZOv6-23">
          <mxGeometry relative="1" as="geometry">
            <Array as="points">
              <mxPoint x="420" y="275" />
              <mxPoint x="420" y="155" />
            </Array>
          </mxGeometry>
        </mxCell>
        <mxCell id="MEJBcDf_CxJD8yL1ZOv6-15" style="edgeStyle=orthogonalEdgeStyle;rounded=0;orthogonalLoop=1;jettySize=auto;html=1;exitX=0.5;exitY=0;exitDx=0;exitDy=0;entryX=0.5;entryY=1;entryDx=0;entryDy=0;" edge="1" parent="MEJBcDf_CxJD8yL1ZOv6-36" source="MEJBcDf_CxJD8yL1ZOv6-19" target="MEJBcDf_CxJD8yL1ZOv6-23">
          <mxGeometry relative="1" as="geometry" />
        </mxCell>
        <mxCell id="MEJBcDf_CxJD8yL1ZOv6-24" value="VO" style="rounded=1;whiteSpace=wrap;html=1;fillColor=#ffe6cc;fontStyle=0;fontSize=13;strokeColor=#000000;glass=0;shadow=0;fontColor=#000000;" vertex="1" parent="MEJBcDf_CxJD8yL1ZOv6-36">
          <mxGeometry x="750" y="110" width="120" height="60" as="geometry" />
        </mxCell>
        <mxCell id="MEJBcDf_CxJD8yL1ZOv6-17" style="edgeStyle=orthogonalEdgeStyle;rounded=0;orthogonalLoop=1;jettySize=auto;html=1;exitX=1;exitY=0.25;exitDx=0;exitDy=0;entryX=0;entryY=0.75;entryDx=0;entryDy=0;" edge="1" parent="MEJBcDf_CxJD8yL1ZOv6-36" source="MEJBcDf_CxJD8yL1ZOv6-19" target="MEJBcDf_CxJD8yL1ZOv6-24">
          <mxGeometry relative="1" as="geometry">
            <Array as="points">
              <mxPoint x="690" y="275" />
              <mxPoint x="690" y="155" />
            </Array>
          </mxGeometry>
        </mxCell>
        <mxCell id="MEJBcDf_CxJD8yL1ZOv6-21" style="edgeStyle=orthogonalEdgeStyle;rounded=0;orthogonalLoop=1;jettySize=auto;html=1;exitX=1;exitY=0.5;exitDx=0;exitDy=0;entryX=0;entryY=0.5;entryDx=0;entryDy=0;" edge="1" parent="MEJBcDf_CxJD8yL1ZOv6-36" source="MEJBcDf_CxJD8yL1ZOv6-23" target="MEJBcDf_CxJD8yL1ZOv6-24">
          <mxGeometry relative="1" as="geometry" />
        </mxCell>
        <mxCell id="MEJBcDf_CxJD8yL1ZOv6-25" style="edgeStyle=orthogonalEdgeStyle;rounded=0;orthogonalLoop=1;jettySize=auto;html=1;exitX=0.5;exitY=0;exitDx=0;exitDy=0;entryX=0.5;entryY=1;entryDx=0;entryDy=0;" edge="1" parent="MEJBcDf_CxJD8yL1ZOv6-36" source="MEJBcDf_CxJD8yL1ZOv6-27" target="MEJBcDf_CxJD8yL1ZOv6-24">
          <mxGeometry relative="1" as="geometry">
            <mxPoint x="810" y="180" as="targetPoint" />
          </mxGeometry>
        </mxCell>
        <mxCell id="MEJBcDf_CxJD8yL1ZOv6-27" value="Mapper&lt;br&gt;(for Mybatis)" style="rounded=1;whiteSpace=wrap;html=1;fillColor=#ffe6cc;fontStyle=0;fontSize=13;strokeColor=#000000;glass=0;shadow=0;" vertex="1" parent="MEJBcDf_CxJD8yL1ZOv6-36">
          <mxGeometry x="750" y="260" width="120" height="60" as="geometry" />
        </mxCell>
        <mxCell id="MEJBcDf_CxJD8yL1ZOv6-16" style="edgeStyle=orthogonalEdgeStyle;rounded=0;orthogonalLoop=1;jettySize=auto;html=1;exitX=1;exitY=0.5;exitDx=0;exitDy=0;entryX=0;entryY=0.5;entryDx=0;entryDy=0;" edge="1" parent="MEJBcDf_CxJD8yL1ZOv6-36" source="MEJBcDf_CxJD8yL1ZOv6-19" target="MEJBcDf_CxJD8yL1ZOv6-27">
          <mxGeometry relative="1" as="geometry" />
        </mxCell>
        <mxCell id="MEJBcDf_CxJD8yL1ZOv6-28" value="CommonService&lt;br&gt;(ex. API, CommonLogic)" style="rounded=1;whiteSpace=wrap;html=1;fillColor=#fff2cc;fontStyle=0;fontSize=13;strokeColor=#000000;glass=0;shadow=0;" vertex="1" parent="MEJBcDf_CxJD8yL1ZOv6-36">
          <mxGeometry x="470" y="444" width="120" height="60" as="geometry" />
        </mxCell>
        <mxCell id="MEJBcDf_CxJD8yL1ZOv6-18" style="edgeStyle=orthogonalEdgeStyle;rounded=0;orthogonalLoop=1;jettySize=auto;html=1;exitX=0.5;exitY=1;exitDx=0;exitDy=0;entryX=0.5;entryY=0;entryDx=0;entryDy=0;" edge="1" parent="MEJBcDf_CxJD8yL1ZOv6-36" source="MEJBcDf_CxJD8yL1ZOv6-19" target="MEJBcDf_CxJD8yL1ZOv6-28">
          <mxGeometry relative="1" as="geometry" />
        </mxCell>
        <mxCell id="MEJBcDf_CxJD8yL1ZOv6-29" style="edgeStyle=orthogonalEdgeStyle;rounded=0;orthogonalLoop=1;jettySize=auto;html=1;exitX=0.5;exitY=0;exitDx=0;exitDy=0;entryX=0.5;entryY=1;entryDx=0;entryDy=0;fontSize=13;endArrow=classic;endFill=1;strokeColor=default;strokeWidth=2;dashed=1;" edge="1" parent="MEJBcDf_CxJD8yL1ZOv6-36" source="MEJBcDf_CxJD8yL1ZOv6-30" target="MEJBcDf_CxJD8yL1ZOv6-12">
          <mxGeometry relative="1" as="geometry" />
        </mxCell>
        <mxCell id="MEJBcDf_CxJD8yL1ZOv6-30" value="Client" style="rounded=1;whiteSpace=wrap;html=1;fontSize=13;glass=0;shadow=0;" vertex="1" parent="MEJBcDf_CxJD8yL1ZOv6-36">
          <mxGeometry x="250" y="404" width="120" height="60" as="geometry" />
        </mxCell>
        <mxCell id="MEJBcDf_CxJD8yL1ZOv6-31" value="DB" style="rounded=1;whiteSpace=wrap;html=1;fontSize=13;glass=0;shadow=0;" vertex="1" parent="MEJBcDf_CxJD8yL1ZOv6-36">
          <mxGeometry x="750" y="404" width="120" height="60" as="geometry" />
        </mxCell>
        <mxCell id="MEJBcDf_CxJD8yL1ZOv6-26" style="edgeStyle=orthogonalEdgeStyle;rounded=0;orthogonalLoop=1;jettySize=auto;html=1;exitX=0.5;exitY=1;exitDx=0;exitDy=0;entryX=0.5;entryY=0;entryDx=0;entryDy=0;fontSize=13;strokeWidth=2;endArrow=classic;endFill=1;dashed=1;" edge="1" parent="MEJBcDf_CxJD8yL1ZOv6-36" source="MEJBcDf_CxJD8yL1ZOv6-27" target="MEJBcDf_CxJD8yL1ZOv6-31">
          <mxGeometry relative="1" as="geometry" />
        </mxCell>
        <mxCell id="MEJBcDf_CxJD8yL1ZOv6-32" value="entity package" style="text;html=1;strokeColor=none;fillColor=none;align=center;verticalAlign=middle;whiteSpace=wrap;rounded=0;fontSize=13;" vertex="1" parent="MEJBcDf_CxJD8yL1ZOv6-36">
          <mxGeometry x="830" y="70" width="90" height="30" as="geometry" />
        </mxCell>
        <mxCell id="MEJBcDf_CxJD8yL1ZOv6-33" value="Endpoint ID name package" style="text;html=1;strokeColor=none;fillColor=none;align=center;verticalAlign=middle;whiteSpace=wrap;rounded=0;fontSize=13;" vertex="1" parent="MEJBcDf_CxJD8yL1ZOv6-36">
          <mxGeometry x="480" y="40" width="170" height="30" as="geometry" />
        </mxCell>
        <mxCell id="MEJBcDf_CxJD8yL1ZOv6-34" value="common service&lt;br&gt;package" style="text;html=1;strokeColor=none;fillColor=none;align=center;verticalAlign=middle;whiteSpace=wrap;rounded=0;fontSize=13;" vertex="1" parent="MEJBcDf_CxJD8yL1ZOv6-36">
          <mxGeometry x="540" y="404" width="100" height="30" as="geometry" />
        </mxCell>
        <mxCell id="MEJBcDf_CxJD8yL1ZOv6-35" value="Area name package" style="text;html=1;strokeColor=none;fillColor=none;align=center;verticalAlign=middle;whiteSpace=wrap;rounded=0;fontSize=13;" vertex="1" parent="MEJBcDf_CxJD8yL1ZOv6-36">
          <mxGeometry x="530" width="140" height="30" as="geometry" />
        </mxCell>
        <mxCell id="MEJBcDf_CxJD8yL1ZOv6-38" value="" style="endArrow=classic;html=1;rounded=0;shape=arrow;sketch=1;curveFitting=1;jiggle=2;strokeWidth=2;endSize=9;startSize=7;shadow=0;" edge="1" parent="1">
          <mxGeometry width="50" height="50" relative="1" as="geometry">
            <mxPoint x="440" y="414" as="sourcePoint" />
            <mxPoint x="615" y="414" as="targetPoint" />
          </mxGeometry>
        </mxCell>
      </root>
    </mxGraphModel>
  </diagram>
</mxfile>
